HIERARCHY
ROOT Hips
{
  OFFSET 5.84602e-005 68.8428 3.50346
  CHANNELS 6 Xposition Yposition Zposition Zrotation Xrotation Yrotation
  JOINT Spine
  {
    OFFSET 0 8.597 -4.6522
    CHANNELS 3 Zrotation Xrotation Yrotation
    JOINT Spine1
    {
      OFFSET 0 7.8454 0.4098
      CHANNELS 3 Zrotation Xrotation Yrotation
      JOINT Spine2
      {
        OFFSET 0 9.7078 -2.1609
        CHANNELS 3 Zrotation Xrotation Yrotation
        JOINT Neck
        {
          OFFSET 0 21.8761 -0.4549
          CHANNELS 3 Zrotation Xrotation Yrotation
          JOINT Head
          {
            OFFSET 0 12.3537 3.3602
            CHANNELS 3 Zrotation Xrotation Yrotation
            End Site
            {
              OFFSET 0.0001 18.9506 0.5657
            }
          }
        }
        JOINT LeftShoulder
        {
          OFFSET 2.2086 21.1115 7.2329
          CHANNELS 3 Zrotation Xrotation Yrotation
          JOINT LeftArm
          {
            OFFSET 13.1193 3.0282 -4.8998
            CHANNELS 3 Zrotation Xrotation Yrotation
            JOINT LeftForeArm
            {
              OFFSET 27.4081 -0.0973053 -0.2375
              CHANNELS 3 Zrotation Xrotation Yrotation
              JOINT LeftHand
              {
                OFFSET 22.8641 0.0662994 -0.1369
                CHANNELS 3 Zrotation Xrotation Yrotation
                JOINT LeftHandIndex1
                {
                  OFFSET 8.8614 0.775009 2.4612
                  CHANNELS 3 Zrotation Xrotation Yrotation
                  JOINT LeftHandIndex2
                  {
                    OFFSET 3.3146 -0.808304 0.5841
                    CHANNELS 3 Zrotation Xrotation Yrotation
                    JOINT LeftHandIndex3
                    {
                      OFFSET 2.2628 -0.552002 0.3989
                      CHANNELS 3 Zrotation Xrotation Yrotation
                      End Site
                      {
                        OFFSET 1.6102 -0.4807 0.2612
                      }
                    }
                  }
                }
                JOINT LeftHandMiddle1
                {
                  OFFSET 8.9937 0.895004 0.2143
                  CHANNELS 3 Zrotation Xrotation Yrotation
                  JOINT LeftHandMiddle2
                  {
                    OFFSET 4.0984 0.0113983 -0.0242
                    CHANNELS 3 Zrotation Xrotation Yrotation
                    JOINT LeftHandMiddle3
                    {
                      OFFSET 2.2716 0.00689697 -0.0138001
                      CHANNELS 3 Zrotation Xrotation Yrotation
                      End Site
                      {
                        OFFSET 2.0404 -0.1441 0.0027
                      }
                    }
                  }
                }
                JOINT LeftHandRing1
                {
                  OFFSET 8.5234 0.597198 -2.0164
                  CHANNELS 3 Zrotation Xrotation Yrotation
                  JOINT LeftHandRing2
                  {
                    OFFSET 3.7188 -0.188293 -0.2328
                    CHANNELS 3 Zrotation Xrotation Yrotation
                    JOINT LeftHandRing3
                    {
                      OFFSET 2.1191 -0.106598 -0.1332
                      CHANNELS 3 Zrotation Xrotation Yrotation
                      End Site
                      {
                        OFFSET 1.8737 -0.2304 -0.0886
                      }
                    }
                  }
                }
                JOINT LeftHandPinky1
                {
                  OFFSET 7.9094 -0.601089 -3.4825
                  CHANNELS 3 Zrotation Xrotation Yrotation
                  JOINT LeftHandPinky2
                  {
                    OFFSET 2.2874 -0.477005 -0.6314
                    CHANNELS 3 Zrotation Xrotation Yrotation
                    JOINT LeftHandPinky3
                    {
                      OFFSET 1.6774 -0.349396 -0.4633
                      CHANNELS 3 Zrotation Xrotation Yrotation
                      End Site
                      {
                        OFFSET 1.4888 -0.4091 -0.3416
                      }
                    }
                  }
                }
                JOINT LeftHandThumb1
                {
                  OFFSET 1.833 -1.3875 1.3896
                  CHANNELS 3 Zrotation Xrotation Yrotation
                  JOINT LeftHandThumb2
                  {
                    OFFSET 3.4129 -1.121 2.5732
                    CHANNELS 3 Zrotation Xrotation Yrotation
                    JOINT LeftHandThumb3
                    {
                      OFFSET 2.2474 -0.804199 1.6192
                      CHANNELS 3 Zrotation Xrotation Yrotation
                      End Site
                      {
                        OFFSET 1.6527 -0.5689 1.1317
                      }
                    }
                  }
                }
              }
            }
          }
        }
        JOINT RightShoulder
        {
          OFFSET -2.2086 21.1115 7.2329
          CHANNELS 3 Zrotation Xrotation Yrotation
          JOINT RightArm
          {
            OFFSET -13.1216 3.0287 -4.9007
            CHANNELS 3 Zrotation Xrotation Yrotation
            JOINT RightForeArm
            {
              OFFSET -27.4081 -0.0973053 -0.2375
              CHANNELS 3 Zrotation Xrotation Yrotation
              JOINT RightHand
              {
                OFFSET -22.8641 0.0664063 -0.1369
                CHANNELS 3 Zrotation Xrotation Yrotation
                JOINT RightHandIndex1
                {
                  OFFSET -8.8614 0.774994 2.4612
                  CHANNELS 3 Zrotation Xrotation Yrotation
                  JOINT RightHandIndex2
                  {
                    OFFSET -3.3146 -0.808304 0.5841
                    CHANNELS 3 Zrotation Xrotation Yrotation
                    JOINT RightHandIndex3
                    {
                      OFFSET -2.2628 -0.552002 0.3989
                      CHANNELS 3 Zrotation Xrotation Yrotation
                      End Site
                      {
                        OFFSET -1.6102 -0.4807 0.2612
                      }
                    }
                  }
                }
                JOINT RightHandMiddle1
                {
                  OFFSET -8.9937 0.894989 0.2143
                  CHANNELS 3 Zrotation Xrotation Yrotation
                  JOINT RightHandMiddle2
                  {
                    OFFSET -4.0984 0.0113983 -0.0242
                    CHANNELS 3 Zrotation Xrotation Yrotation
                    JOINT RightHandMiddle3
                    {
                      OFFSET -2.2716 0.00691223 -0.0138001
                      CHANNELS 3 Zrotation Xrotation Yrotation
                      End Site
                      {
                        OFFSET -2.0404 -0.1441 0.0027
                      }
                    }
                  }
                }
                JOINT RightHandRing1
                {
                  OFFSET -8.5234 0.597198 -2.0164
                  CHANNELS 3 Zrotation Xrotation Yrotation
                  JOINT RightHandRing2
                  {
                    OFFSET -3.7188 -0.188309 -0.2328
                    CHANNELS 3 Zrotation Xrotation Yrotation
                    JOINT RightHandRing3
                    {
                      OFFSET -2.1191 -0.106598 -0.1332
                      CHANNELS 3 Zrotation Xrotation Yrotation
                      End Site
                      {
                        OFFSET -1.8737 -0.2304 -0.0886
                      }
                    }
                  }
                }
                JOINT RightHandPinky1
                {
                  OFFSET -7.9094 -0.601105 -3.4825
                  CHANNELS 3 Zrotation Xrotation Yrotation
                  JOINT RightHandPinky2
                  {
                    OFFSET -2.2874 -0.477005 -0.6314
                    CHANNELS 3 Zrotation Xrotation Yrotation
                    JOINT RightHandPinky3
                    {
                      OFFSET -1.6774 -0.349396 -0.4633
                      CHANNELS 3 Zrotation Xrotation Yrotation
                      End Site
                      {
                        OFFSET -1.4888 -0.4091 -0.3416
                      }
                    }
                  }
                }
                JOINT RightHandThumb1
                {
                  OFFSET -1.833 -1.38751 1.3896
                  CHANNELS 3 Zrotation Xrotation Yrotation
                  JOINT RightHandThumb2
                  {
                    OFFSET -3.41299 -1.12099 2.5732
                    CHANNELS 3 Zrotation Xrotation Yrotation
                    JOINT RightHandThumb3
                    {
                      OFFSET -2.24741 -0.804108 1.6192
                      CHANNELS 3 Zrotation Xrotation Yrotation
                      End Site
                      {
                        OFFSET -1.6527 -0.5689 1.1317
                      }
                    }
                  }
                }
              }
            }
          }
        }
      }
    }
  }
  JOINT RightUpLeg
  {
    OFFSET -9.1966 3.8861 -0.7581
    CHANNELS 3 Zrotation Xrotation Yrotation
    JOINT RightLeg
    {
      OFFSET -0.7359 -41.0265 0
      CHANNELS 3 Zrotation Xrotation Yrotation
      JOINT RightFoot
      {
        OFFSET 0 -40.2855 0
        CHANNELS 3 Zrotation Xrotation Yrotation
        JOINT RightToeBase
        {
          OFFSET 0 -5.6122 11.7359
          CHANNELS 3 Zrotation Xrotation Yrotation
          End Site
          {
            OFFSET 0 0 7.8731
          }
        }
      }
    }
  }
  JOINT LeftUpLeg
  {
    OFFSET 9.1965 3.8864 -0.7581
    CHANNELS 3 Zrotation Xrotation Yrotation
    JOINT LeftLeg
    {
      OFFSET 0.7359 -41.0268 0
      CHANNELS 3 Zrotation Xrotation Yrotation
      JOINT LeftFoot
      {
        OFFSET 0 -40.2855 0
        CHANNELS 3 Zrotation Xrotation Yrotation
        JOINT LeftToeBase
        {
          OFFSET 0 -5.6122 11.7359
          CHANNELS 3 Zrotation Xrotation Yrotation
          End Site
          {
            OFFSET 0 0 7.8731
          }
        }
      }
    }
  }
}
MOTION
Frames:	4
Frame Time:	0.0333333
-0.0869755 1.06176 7.63812 -180 -89.9981 -180 0.168632 5.05945 -0.272999 0.363716 10.118 -0.564335 0.363717 10.118 -0.564335 -1.5642e-006 13.063 1.18954e-006 -7.80767e-008 8.99857 5.55515e-008 18.7599 3.31454 5.59152 -63.0889 12.2205 47.1174 33.0836 8.3222 -77.4778 -9.47268 25.4939 0.83691 3.69294e-008 -3.26287e-008 -1.59102e-007 4.26882e-007 1.04075e-007 -8.74068e-009 1.26694e-008 -6.16921e-008 1.53404e-007 3.69294e-008 -3.26287e-008 -1.59102e-007 -0.0146189 -8.87614e-005 4.57184e-006 1.36452e-008 -6.17058e-008 1.53396e-007 3.69294e-008 -3.26287e-008 -1.59102e-007 -0.0187532 -0.0011758 4.75687e-005 3.56764e-008 -3.26812e-008 -1.59105e-007 3.69294e-008 -3.26287e-008 -1.59102e-007 -0.0122785 -0.00325064 0.000679458 1.34928e-008 -6.14917e-008 1.53352e-007 3.69294e-008 -3.26287e-008 -1.59102e-007 4.26882e-007 1.04075e-007 -8.74068e-009 1.26694e-008 -6.16921e-008 1.53404e-007 -11.2686 3.12266 -11.9633 44.6525 20.6499 -25.9815 -28.48 21.5759 65.0148 9.33518 26.4993 -0.292025 -7.64291e-007 -5.65063e-007 2.4231e-008 -1.14317e-006 -3.72359e-007 -4.7162e-009 -7.64291e-007 -5.65063e-007 2.4231e-008 -7.64291e-007 -5.65063e-007 2.4231e-008 0.0150038 -9.2303e-005 -9.25842e-007 -7.6428e-007 -5.6506e-007 2.43056e-008 -7.64291e-007 -5.65063e-007 2.4231e-008 0.0190111 -0.00119304 -5.88728e-005 -7.64277e-007 -5.6506e-007 2.43327e-008 -7.64291e-007 -5.65063e-007 2.4231e-008 0.0122775 -0.00325131 -0.000676385 -7.64278e-007 -5.65067e-007 2.43127e-008 -7.64291e-007 -5.65063e-007 2.4231e-008 -1.14317e-006 -3.72359e-007 -4.7162e-009 -7.64291e-007 -5.65063e-007 2.4231e-008 -171.232 -39.4162 -176.12 3.54109 43.9249 -4.24964 -10.6692 14.8508 2.64965 8.11869e-007 1.58868e-008 4.91623e-007 157.329 -43.0675 165.536 -1.994 9.76451 1.01346 9.08061 11.7521 0.72957 -1.4685e-006 3.52293e-007 1.15463e-006 
-0.0869755 1.06176 7.63812 -180 -89.9981 -180 0.168632 5.05945 -0.272999 0.363716 10.118 -0.564335 0.363717 10.118 -0.564335 1.6356e-008 13.063 8.09952e-007 -2.67384e-007 8.99858 -3.59606e-008 18.7599 3.31454 5.59152 -63.0889 12.2205 47.1174 33.0836 8.3222 -77.4778 -9.47268 25.4939 0.83691 3.69294e-008 -3.26287e-008 -1.59102e-007 4.26882e-007 1.04075e-007 -8.74068e-009 1.26694e-008 -6.16921e-008 1.53404e-007 3.69294e-008 -3.26287e-008 -1.59102e-007 -0.0146189 -8.87614e-005 4.57184e-006 1.36452e-008 -6.17058e-008 1.53396e-007 3.69294e-008 -3.26287e-008 -1.59102e-007 -0.0187532 -0.0011758 4.75687e-005 3.56764e-008 -3.26812e-008 -1.59105e-007 3.69294e-008 -3.26287e-008 -1.59102e-007 -0.0122785 -0.00325064 0.000679458 1.34928e-008 -6.14917e-008 1.53352e-007 3.69294e-008 -3.26287e-008 -1.59102e-007 4.26882e-007 1.04075e-007 -8.74068e-009 1.26694e-008 -6.16921e-008 1.53404e-007 -11.2686 3.12266 -11.9633 44.6525 20.6499 -25.9815 -28.48 21.5759 65.0148 9.33519 26.4993 -0.292037 -9.35123e-007 -6.9359e-007 -7.54462e-008 -6.52459e-009 -9.50471e-007 8.21254e-008 -7.64291e-007 -5.65063e-007 2.42309e-008 -9.35123e-007 -6.9359e-007 -7.54462e-008 0.0149844 -9.19766e-005 -1.58002e-006 -7.6428e-007 -5.6506e-007 2.43054e-008 -9.35123e-007 -6.9359e-007 -7.54462e-008 0.0190065 -0.00119207 -5.30403e-005 -7.64277e-007 -5.6506e-007 2.43326e-008 -9.35123e-007 -6.9359e-007 -7.54462e-008 0.0122779 -0.0032515 -0.000676356 -7.64278e-007 -5.65067e-007 2.43127e-008 -9.35123e-007 -6.9359e-007 -7.54462e-008 -6.52459e-009 -9.50471e-007 8.21254e-008 -7.64291e-007 -5.65063e-007 2.42309e-008 -171.232 -39.4162 -176.12 3.54109 43.9249 -4.24963 -10.6692 14.8508 2.64965 3.42754e-008 3.69928e-008 -4.23072e-007 157.329 -43.0676 165.536 -1.994 9.76451 1.01346 9.08061 11.7521 0.729566 -3.48485e-006 -1.21355e-006 9.54094e-007 
-0.0869755 1.06176 7.63812 -180 -89.9981 -180 0.168632 5.05945 -0.272999 0.363716 10.118 -0.564335 0.363717 10.118 -0.564335 3.50693e-007 13.3539 -2.9254e-007 -1.78712e-007 8.99857 8.78521e-008 18.7599 3.31454 5.59152 -63.0889 12.2205 47.1174 33.0836 8.3222 -77.4778 -9.33049 25.3828 0.797678 3.77343e-007 1.98298e-007 -3.62932e-009 -4.95744e-008 9.43358e-008 5.64296e-009 3.77343e-007 1.98297e-007 -3.62931e-009 3.77343e-007 1.98298e-007 -3.62932e-009 -0.0146052 -8.83376e-005 -2.50563e-006 3.89323e-008 1.36707e-008 -3.09645e-007 3.77343e-007 1.98298e-007 -3.62932e-009 -0.0187354 -0.00117489 5.77251e-005 3.77339e-007 1.98298e-007 -3.60074e-009 3.77343e-007 1.98298e-007 -3.62932e-009 -0.0122703 -0.00324761 0.000679753 3.77342e-007 1.98295e-007 -3.61865e-009 3.77343e-007 1.98298e-007 -3.62932e-009 -4.95744e-008 9.43358e-008 5.64296e-009 3.77343e-007 1.98297e-007 -3.62931e-009 -11.1414 3.0846 -11.8697 44.6525 20.6499 -25.9815 -28.48 21.5759 65.0148 9.20093 26.3284 -0.284242 3.18055e-015 0 3.18055e-015 0 7.95139e-016 -0 0 0 -0 3.18055e-015 0 3.18055e-015 0.0149948 -9.27536e-005 -1.53203e-006 1.5064e-007 1.10621e-007 1.13329e-007 3.18055e-015 0 3.18055e-015 0.0190078 -0.00119137 -6.29605e-005 -1.32417e-031 7.95139e-016 9.54166e-015 3.18055e-015 0 3.18055e-015 0.0122798 -0.00325069 -0.000680813 1.50279e-007 1.10197e-007 1.13237e-007 3.18055e-015 0 3.18055e-015 0 7.95139e-016 -0 0 0 -0 -171.236 -39.4181 -176.123 3.54 43.9173 -4.24591 -10.5638 14.8561 2.50698 9.93923e-016 -1.59028e-015 -0 157.329 -43.0676 165.536 -1.994 9.76451 1.01346 9.08061 11.7521 0.729566 -3.48485e-006 -1.21355e-006 9.54094e-007 
-0.0869755 1.06176 7.63812 -180 -89.9981 -180 0.168632 5.05945 -0.272999 0.363716 10.118 -0.564335 0.363717 10.118 -0.564335 -1.50461e-006 13.5922 1.47052e-006 -2.52249e-007 8.99857 6.91866e-008 18.7599 3.31454 5.59152 -63.0889 12.2205 47.1174 33.0836 8.3222 -77.4778 -9.2143 25.2918 0.765868 -7.99409e-007 -2.06711e-007 -2.87886e-007 -4.95542e-008 9.43478e-008 5.59762e-009 -5.44823e-008 -1.0276e-009 3.07301e-007 -7.99409e-007 -2.06711e-007 -2.87886e-007 -0.0146066 -8.85564e-005 -2.67105e-006 7.95139e-016 1.39149e-015 -0 -7.99409e-007 -2.06711e-007 -2.87886e-007 -0.0187678 -0.00117668 5.37125e-005 1.78906e-015 1.78906e-015 9.54166e-015 -7.99409e-007 -2.06711e-007 -2.87886e-007 -0.0122569 -0.00324448 0.000677335 3.97569e-016 1.78906e-015 1.27222e-014 -7.99409e-007 -2.06711e-007 -2.87886e-007 -4.95542e-008 9.43478e-008 5.59762e-009 -5.44823e-008 -1.0276e-009 3.07301e-007 -11.0372 3.05362 -11.793 44.6525 20.6499 -25.9815 -28.48 21.5759 65.0148 9.09125 26.1885 -0.278206 -1.27216e-006 -7.01455e-007 8.51696e-008 -1.14408e-006 -3.70719e-007 -3.13354e-009 -3.18055e-015 3.18055e-015 9.54166e-015 -1.27216e-006 -7.01455e-007 8.51696e-008 0.0149919 -9.12314e-005 1.39908e-006 1.59028e-015 -3.97569e-015 1.59028e-014 -1.27216e-006 -7.01455e-007 8.51696e-008 0.0190074 -0.00119138 -5.90275e-005 4.77083e-015 -2.38542e-015 -0 -1.27216e-006 -7.01455e-007 8.51696e-008 0.0122617 -0.00324812 -0.000679252 0 0 -0 -1.27216e-006 -7.01455e-007 8.51696e-008 -1.14408e-006 -3.70719e-007 -3.13354e-009 -3.18055e-015 3.18055e-015 9.54166e-015 -171.239 -39.4197 -176.126 3.53911 43.9111 -4.24286 -10.4775 14.8602 2.39023 -7.77921e-007 1.82342e-008 -9.1443e-007 157.329 -43.0676 165.536 -1.994 9.76451 1.01346 9.08061 11.7521 0.72957 -4.7852e-006 -7.20515e-007 2.92705e-006 
